<svg id="Ebene_1" data-name="Ebene 1" xmlns="http://www.w3.org/2000/svg" width="24" height="24" viewBox="0 0 24 24">
  <defs>
    <style>
      .cls-1 {
        fill: #454545;
      }

      .cls-2 {
        fill: none;
        stroke: #454545;
        stroke-miterlimit: 10;
        stroke-width: 2px;
      }
    </style>
  </defs>
  <title>mode_wire</title>
  <path class="cls-1" d="M5,3V5H3V3H5M7,1H1V7H7V1Z"/>
  <path class="cls-1" d="M21,3V5H19V3h2m2-2H17V7h6V1Z"/>
  <path class="cls-1" d="M5,19v2H3V19H5m2-2H1v6H7V17Z"/>
  <line class="cls-2" x1="4" y1="6" x2="4" y2="18"/>
  <line class="cls-2" x1="20" y1="6" x2="20" y2="11"/>
  <line class="cls-2" x1="18" y1="4" x2="6" y2="4"/>
  <line class="cls-2" x1="12" y1="20" x2="6" y2="20"/>
  <polygon class="cls-1" points="14 9 14 22 18 18 23 18 14 9"/>
  <polygon class="cls-1" points="19 11 21 13 21 11 19 11"/>
</svg>
