<svg id="Ebene_1" data-name="Ebene 1" xmlns="http://www.w3.org/2000/svg" viewBox="0 0 24 24"><defs><style>.cls-1{fill:#454545;}</style></defs><title>save</title><g id="Icons_Material" data-name="Icons Material"><path class="cls-1" d="M17.62,2H16V7.89A1.09,1.09,0,0,1,15,9H7.06A1.1,1.1,0,0,1,6,7.89V2H5.36A2.31,2.31,0,0,0,3,4.27V19.71A2.32,2.32,0,0,0,5.32,22H18.68A2.32,2.32,0,0,0,21,19.71V5.33Zm.31,18H5.07L5,19.93V11H18v8.93Z"/><rect class="cls-1" x="13" y="3" width="2" height="4"/><rect class="cls-1" x="6" y="13" width="11" height="1.5"/><rect class="cls-1" x="6" y="16.5" width="11" height="1.5"/></g></svg>